<?xml version="1.0" encoding="UTF-8"?>
<svg width="14px" height="71px" viewBox="0 0 14 71" version="1.1" xmlns="http://www.w3.org/2000/svg" xmlns:xlink="http://www.w3.org/1999/xlink">
    <!-- Generator: Sketch 55 (78076) - https://sketchapp.com -->
    <title>Artboard Copy</title>
    <desc>Created with Sketch.</desc>
    <g id="Artboard-Copy" stroke="none" stroke-width="1" fill="none" fill-rule="evenodd">
        <polygon id="Line-Copy-3" fill="#ADC361" fill-rule="nonzero" transform="translate(7.485281, 24.000000) rotate(-270.000000) translate(-7.485281, -24.000000) " points="-17.5147186 25 32.4852814 25 32.4852814 23 -17.5147186 23"></polygon>
        <path d="M7.48528137,69 C10.7989899,69 13.4852814,66.3137085 13.4852814,63 C13.4852814,59.6862915 10.7989899,57 7.48528137,57 C4.17157288,57 1.48528137,59.6862915 1.48528137,63 C1.48528137,66.3137085 4.17157288,69 7.48528137,69 Z M7.48528137,67 C5.27614238,67 3.48528137,65.209139 3.48528137,63 C3.48528137,60.790861 5.27614238,59 7.48528137,59 C9.69442037,59 11.4852814,60.790861 11.4852814,63 C11.4852814,65.209139 9.69442037,67 7.48528137,67 Z" id="Oval-Copy" fill="#ADC361" fill-rule="nonzero" transform="translate(7.485281, 63.000000) rotate(-225.000000) translate(-7.485281, -63.000000) "></path>
    </g>
</svg>